<svg width="48" height="48" viewBox="0 0 48 48" fill="none" xmlns="http://www.w3.org/2000/svg">
<rect width="48" height="48" rx="12" fill="#4361EE"/>
<g filter="url(#filter0_d_3_153)">
<path fill-rule="evenodd" clip-rule="evenodd" d="M22.5 9C22.5 8.17157 23.1716 7.5 24 7.5V7.5C24.8284 7.5 25.5 8.17157 25.5 9V9C25.5 9.82843 24.8284 10.5 24 10.5V10.5C23.1716 10.5 22.5 9.82843 22.5 9V9ZM22.5 39C22.5 38.1716 23.1716 37.5 24 37.5V37.5C24.8284 37.5 25.5 38.1716 25.5 39V39C25.5 39.8284 24.8284 40.5 24 40.5V40.5C23.1716 40.5 22.5 39.8284 22.5 39V39ZM39 22.5C38.1716 22.5 37.5 23.1716 37.5 24V24C37.5 24.8284 38.1716 25.5 39 25.5V25.5C39.8284 25.5 40.5 24.8284 40.5 24V24C40.5 23.1716 39.8284 22.5 39 22.5V22.5ZM9 25.5C8.17157 25.5 7.5 24.8284 7.5 24V24C7.5 23.1716 8.17157 22.5 9 22.5V22.5C9.82843 22.5 10.5 23.1716 10.5 24V24C10.5 24.8284 9.82843 25.5 9 25.5V25.5ZM14.4541 12.3327C13.8683 11.747 12.9185 11.747 12.3327 12.3327V12.3327C11.7469 12.9185 11.7469 13.8683 12.3327 14.4541V14.4541C12.9185 15.0398 13.8683 15.0398 14.4541 14.4541V14.4541C15.0398 13.8683 15.0398 12.9185 14.4541 12.3327V12.3327ZM33.5459 35.6673C32.9602 35.0815 32.9602 34.1317 33.5459 33.5459V33.5459C34.1317 32.9602 35.0815 32.9602 35.6673 33.5459V33.5459C36.253 34.1317 36.253 35.0815 35.6673 35.6673V35.6673C35.0815 36.253 34.1317 36.253 33.5459 35.6673V35.6673ZM33.5459 12.3327C32.9602 12.9185 32.9602 13.8683 33.5459 14.4541V14.4541C34.1317 15.0398 35.0815 15.0398 35.6673 14.4541V14.4541C36.253 13.8683 36.253 12.9185 35.6673 12.3327V12.3327C35.0815 11.747 34.1317 11.747 33.5459 12.3327V12.3327ZM14.4541 35.6673C13.8683 36.2531 12.9185 36.2531 12.3327 35.6673V35.6673C11.747 35.0815 11.747 34.1317 12.3327 33.5459V33.5459C12.9185 32.9602 13.8683 32.9602 14.4541 33.5459V33.5459C15.0398 34.1317 15.0398 35.0815 14.4541 35.6673V35.6673ZM30.1576 21.557C30.7434 20.9712 30.7434 20.0214 30.1576 19.4357V19.4357C29.5718 18.8499 28.6221 18.8499 28.0363 19.4357L21.3107 26.1613C20.7249 26.7471 20.7249 27.6968 21.3107 28.2826V28.2826C21.8964 28.8684 22.8462 28.8684 23.432 28.2826L30.1576 21.557ZM17.7385 24.7936C18.3243 25.3794 19.274 25.3794 19.8598 24.7936V24.7936C20.4456 24.2078 20.4456 23.2581 19.8598 22.6723L19.3026 22.1151C18.7169 21.5293 17.7671 21.5293 17.1813 22.1151V22.1151C16.5955 22.7009 16.5955 23.6507 17.1813 24.2364L17.7385 24.7936Z" fill="white"/>
</g>
<defs>
<filter id="filter0_d_3_153" x="7.5" y="7.5" width="33" height="35" filterUnits="userSpaceOnUse" color-interpolation-filters="sRGB">
<feFlood flood-opacity="0" result="BackgroundImageFix"/>
<feColorMatrix in="SourceAlpha" type="matrix" values="0 0 0 0 0 0 0 0 0 0 0 0 0 0 0 0 0 0 127 0" result="hardAlpha"/>
<feOffset dy="2"/>
<feComposite in2="hardAlpha" operator="out"/>
<feColorMatrix type="matrix" values="0 0 0 0 0 0 0 0 0 0 0 0 0 0 0 0 0 0 0.25 0"/>
<feBlend mode="normal" in2="BackgroundImageFix" result="effect1_dropShadow_3_153"/>
<feBlend mode="normal" in="SourceGraphic" in2="effect1_dropShadow_3_153" result="shape"/>
</filter>
</defs>
</svg>
