<svg width="24" height="24" viewBox="0 0 24 24" fill="none" xmlns="http://www.w3.org/2000/svg">
<rect width="24" height="24" rx="6" fill="#CED4DA"/>
<path fill-rule="evenodd" clip-rule="evenodd" d="M11.25 4.5C11.25 4.08579 11.5858 3.75 12 3.75V3.75C12.4142 3.75 12.75 4.08579 12.75 4.5V4.5C12.75 4.91421 12.4142 5.25 12 5.25V5.25C11.5858 5.25 11.25 4.91421 11.25 4.5V4.5ZM11.25 19.5C11.25 19.0858 11.5858 18.75 12 18.75V18.75C12.4142 18.75 12.75 19.0858 12.75 19.5V19.5C12.75 19.9142 12.4142 20.25 12 20.25V20.25C11.5858 20.25 11.25 19.9142 11.25 19.5V19.5ZM19.5 11.25C19.0858 11.25 18.75 11.5858 18.75 12V12C18.75 12.4142 19.0858 12.75 19.5 12.75V12.75C19.9142 12.75 20.25 12.4142 20.25 12V12C20.25 11.5858 19.9142 11.25 19.5 11.25V11.25ZM4.5 12.75C4.08579 12.75 3.75 12.4142 3.75 12V12C3.75 11.5858 4.08579 11.25 4.5 11.25V11.25C4.91421 11.25 5.25 11.5858 5.25 12V12C5.25 12.4142 4.91421 12.75 4.5 12.75V12.75ZM7.22702 6.16636C6.93413 5.87346 6.45926 5.87346 6.16636 6.16636V6.16636C5.87347 6.45925 5.87347 6.93412 6.16636 7.22702V7.22702C6.45926 7.51991 6.93413 7.51991 7.22702 7.22702V7.22702C7.51992 6.93412 7.51992 6.45925 7.22702 6.16636V6.16636ZM16.773 17.8336C16.4801 17.5408 16.4801 17.0659 16.773 16.773V16.773C17.0659 16.4801 17.5407 16.4801 17.8336 16.773V16.773C18.1265 17.0659 18.1265 17.5408 17.8336 17.8336V17.8336C17.5407 18.1265 17.0659 18.1265 16.773 17.8336V17.8336ZM16.773 6.16636C16.4801 6.45926 16.4801 6.93413 16.773 7.22702V7.22702C17.0659 7.51992 17.5407 7.51992 17.8336 7.22702V7.22702C18.1265 6.93413 18.1265 6.45926 17.8336 6.16636V6.16636C17.5407 5.87347 17.0659 5.87347 16.773 6.16636V6.16636ZM7.22703 17.8336C6.93414 18.1265 6.45926 18.1265 6.16637 17.8336V17.8336C5.87348 17.5407 5.87348 17.0659 6.16637 16.773V16.773C6.45926 16.4801 6.93414 16.4801 7.22703 16.773V16.773C7.51992 17.0659 7.51992 17.5407 7.22703 17.8336V17.8336ZM15.0788 10.7785C15.3717 10.4856 15.3717 10.0107 15.0788 9.71783V9.71783C14.7859 9.42494 14.311 9.42494 14.0181 9.71783L10.6553 13.0806C10.3624 13.3735 10.3624 13.8484 10.6553 14.1413V14.1413C10.9482 14.4342 11.4231 14.4342 11.716 14.1413L15.0788 10.7785ZM8.86925 12.3968C9.16214 12.6897 9.63701 12.6897 9.92991 12.3968V12.3968C10.2228 12.1039 10.2228 11.629 9.92991 11.3361L9.65132 11.0575C9.35843 10.7646 8.88356 10.7646 8.59066 11.0575V11.0575C8.29777 11.3504 8.29777 11.8253 8.59066 12.1182L8.86925 12.3968Z" fill="#4361EE"/>
</svg>
